<svg width="60" height="18" viewBox="0 0 60 18" fill="none" xmlns="http://www.w3.org/2000/svg">
<path d="M6.05069 3.82667C6.9218 3.82667 7.69958 4.05067 8.38402 4.49867C9.08091 4.93422 9.62847 5.53778 10.0267 6.30933C10.4374 7.08089 10.6427 7.97689 10.6427 8.99733C10.6427 10.0178 10.4374 10.92 10.0267 11.704C9.62847 12.4756 9.08713 13.0853 8.40269 13.5333C7.73069 13.9689 6.97158 14.1867 6.12535 14.1867C5.62758 14.1867 5.16091 14.1058 4.72535 13.944C4.2898 13.7822 3.90402 13.5769 3.56802 13.328C3.24447 13.0791 2.98935 12.8302 2.80269 12.5813C2.62847 12.32 2.54135 12.1022 2.54135 11.928L3.12002 11.6853V13.048C3.12002 13.3716 3.01424 13.6453 2.80269 13.8693C2.59113 14.0809 2.32358 14.1867 2.00002 14.1867C1.67647 14.1867 1.40891 14.0809 1.19735 13.8693C0.985798 13.6578 0.880021 13.384 0.880021 13.048V1.32533C0.880021 1.00178 0.985798 0.73422 1.19735 0.522665C1.40891 0.298665 1.67647 0.186666 2.00002 0.186666C2.32358 0.186666 2.59113 0.298665 2.80269 0.522665C3.01424 0.73422 3.12002 1.00178 3.12002 1.32533V6.06667L2.80269 5.89867C2.80269 5.73689 2.8898 5.544 3.06402 5.32C3.23824 5.08355 3.47469 4.85333 3.77335 4.62933C4.07202 4.39289 4.41424 4.2 4.80002 4.05067C5.19824 3.90133 5.61513 3.82667 6.05069 3.82667ZM5.77069 5.88C5.22313 5.88 4.74402 6.01689 4.33335 6.29067C3.92269 6.56444 3.59913 6.93778 3.36269 7.41067C3.13869 7.87111 3.02669 8.4 3.02669 8.99733C3.02669 9.58222 3.13869 10.1173 3.36269 10.6027C3.59913 11.0756 3.92269 11.4489 4.33335 11.7227C4.74402 11.9964 5.22313 12.1333 5.77069 12.1333C6.31824 12.1333 6.79113 11.9964 7.18935 11.7227C7.60002 11.4489 7.91735 11.0756 8.14135 10.6027C8.3778 10.1173 8.49602 9.58222 8.49602 8.99733C8.49602 8.4 8.3778 7.87111 8.14135 7.41067C7.91735 6.93778 7.60002 6.56444 7.18935 6.29067C6.79113 6.01689 6.31824 5.88 5.77069 5.88ZM13.7214 14C13.3978 14 13.1303 13.8942 12.9187 13.6827C12.7072 13.4587 12.6014 13.1849 12.6014 12.8613V5.152C12.6014 4.82844 12.7072 4.56089 12.9187 4.34933C13.1303 4.12533 13.3978 4.01333 13.7214 4.01333C14.0449 4.01333 14.3125 4.12533 14.524 4.34933C14.7356 4.56089 14.8414 4.82844 14.8414 5.152V6.90667L14.7107 5.656C14.8476 5.35733 15.0218 5.096 15.2334 4.872C15.4574 4.63555 15.7063 4.44267 15.98 4.29333C16.2538 4.13155 16.5463 4.01333 16.8574 3.93867C17.1685 3.864 17.4796 3.82667 17.7907 3.82667C18.164 3.82667 18.4752 3.93244 18.724 4.144C18.9854 4.35555 19.116 4.60444 19.116 4.89067C19.116 5.30133 19.0103 5.6 18.7987 5.78667C18.5872 5.96089 18.3569 6.048 18.108 6.048C17.8716 6.048 17.6538 6.00444 17.4547 5.91733C17.268 5.83022 17.0503 5.78667 16.8014 5.78667C16.5774 5.78667 16.3472 5.84267 16.1107 5.95467C15.8867 6.05422 15.6752 6.216 15.476 6.44C15.2894 6.664 15.1338 6.944 15.0094 7.28C14.8974 7.60355 14.8414 7.98933 14.8414 8.43733V12.8613C14.8414 13.1849 14.7356 13.4587 14.524 13.6827C14.3125 13.8942 14.0449 14 13.7214 14ZM24.9799 14.1867C23.9221 14.1867 23.0012 13.9689 22.2172 13.5333C21.4456 13.0853 20.8483 12.4818 20.4252 11.7227C20.0145 10.9636 19.8092 10.1049 19.8092 9.14667C19.8092 8.02667 20.0332 7.07467 20.4812 6.29067C20.9416 5.49422 21.539 4.88444 22.2732 4.46133C23.0074 4.03822 23.7852 3.82667 24.6065 3.82667C25.2412 3.82667 25.8385 3.95733 26.3985 4.21867C26.971 4.48 27.475 4.84089 27.9105 5.30133C28.3461 5.74933 28.6883 6.272 28.9372 6.86933C29.1985 7.46667 29.3292 8.10133 29.3292 8.77333C29.3167 9.072 29.1985 9.31467 28.9745 9.50133C28.7505 9.688 28.4892 9.78133 28.1905 9.78133H21.0599L20.4999 7.91467H27.3505L26.9399 8.288V7.784C26.915 7.42311 26.7843 7.09955 26.5479 6.81333C26.3239 6.52711 26.0376 6.30311 25.6892 6.14133C25.3532 5.96711 24.9923 5.88 24.6065 5.88C24.2332 5.88 23.8847 5.92978 23.5612 6.02933C23.2376 6.12889 22.9576 6.29689 22.7212 6.53333C22.4847 6.76978 22.2981 7.08711 22.1612 7.48533C22.0243 7.88356 21.9559 8.38756 21.9559 8.99733C21.9559 9.66933 22.0927 10.2418 22.3665 10.7147C22.6527 11.1751 23.0136 11.5298 23.4492 11.7787C23.8972 12.0151 24.3701 12.1333 24.8679 12.1333C25.3283 12.1333 25.6954 12.096 25.9692 12.0213C26.243 11.9467 26.4607 11.8596 26.6225 11.76C26.7967 11.648 26.9523 11.5547 27.0892 11.48C27.3132 11.368 27.5247 11.312 27.7239 11.312C27.9976 11.312 28.2216 11.4053 28.3959 11.592C28.5825 11.7787 28.6759 11.9964 28.6759 12.2453C28.6759 12.5813 28.5016 12.8862 28.1532 13.16C27.8296 13.4338 27.3754 13.6764 26.7905 13.888C26.2056 14.0871 25.6021 14.1867 24.9799 14.1867ZM31.6431 4.01333C31.8796 4.01333 32.0973 4.07555 32.2965 4.2C32.4956 4.312 32.6449 4.48622 32.7445 4.72267L35.4885 10.9947L35.0778 11.1813L37.8778 4.74133C38.0893 4.24355 38.4191 4.00711 38.8671 4.032C39.1782 4.032 39.4271 4.13155 39.6138 4.33067C39.8129 4.51733 39.9125 4.75378 39.9125 5.04C39.9125 5.12711 39.8938 5.22044 39.8565 5.32C39.8316 5.41955 39.8005 5.51289 39.7631 5.6L36.2725 13.2907C36.0733 13.7387 35.756 13.9751 35.3205 14C35.084 14.0373 34.8538 13.9938 34.6298 13.8693C34.4182 13.7449 34.2565 13.552 34.1445 13.2907L30.6725 5.6C30.6476 5.53778 30.6165 5.45689 30.5791 5.35733C30.5542 5.25778 30.5418 5.13955 30.5418 5.00267C30.5418 4.77867 30.6413 4.56089 30.8405 4.34933C31.0396 4.12533 31.3071 4.01333 31.6431 4.01333ZM42.6662 13.9813C42.3053 13.9813 42.0253 13.888 41.8262 13.7013C41.6396 13.5022 41.5462 13.2222 41.5462 12.8613V12.544C41.5462 12.1831 41.6396 11.9093 41.8262 11.7227C42.0253 11.5236 42.3053 11.424 42.6662 11.424H42.9089C43.2698 11.424 43.5436 11.5236 43.7302 11.7227C43.9293 11.9093 44.0289 12.1831 44.0289 12.544V12.8613C44.0289 13.2222 43.9293 13.5022 43.7302 13.7013C43.5436 13.888 43.2698 13.9813 42.9089 13.9813H42.6662ZM48.752 12.8613C48.752 13.1849 48.64 13.4587 48.416 13.6827C48.2044 13.8942 47.9369 14 47.6133 14C47.3022 14 47.0409 13.8942 46.8293 13.6827C46.6178 13.4587 46.512 13.1849 46.512 12.8613V1.32533C46.512 1.00178 46.6178 0.73422 46.8293 0.522665C47.0533 0.298665 47.3271 0.186666 47.6507 0.186666C47.9742 0.186666 48.2356 0.298665 48.4347 0.522665C48.6462 0.73422 48.752 1.00178 48.752 1.32533V12.8613ZM58.4938 4.01333C58.8174 4.01333 59.0849 4.12533 59.2965 4.34933C59.508 4.56089 59.6138 4.82844 59.6138 5.152V13.0853C59.6138 14.2302 59.396 15.1387 58.9605 15.8107C58.5374 16.4951 57.9649 16.9867 57.2431 17.2853C56.5214 17.584 55.7125 17.7333 54.8165 17.7333C54.4183 17.7333 53.9951 17.7022 53.5471 17.64C53.0991 17.5778 52.732 17.4844 52.4458 17.36C52.0725 17.1982 51.8111 16.9929 51.6618 16.744C51.5249 16.5076 51.5 16.2524 51.5871 15.9787C51.6991 15.6178 51.8796 15.3689 52.1285 15.232C52.3774 15.1076 52.6387 15.0951 52.9125 15.1947C53.1116 15.2569 53.3729 15.3502 53.6965 15.4747C54.02 15.6116 54.3934 15.68 54.8165 15.68C55.3889 15.68 55.8618 15.5991 56.2351 15.4373C56.6209 15.288 56.9071 15.0267 57.0938 14.6533C57.2929 14.2924 57.3925 13.7947 57.3925 13.16V11.9093L57.7845 12.3573C57.5729 12.768 57.3054 13.1102 56.9818 13.384C56.6707 13.6453 56.2974 13.8444 55.8618 13.9813C55.4263 14.1182 54.9285 14.1867 54.3685 14.1867C53.7089 14.1867 53.1303 14.0373 52.6325 13.7387C52.1471 13.4276 51.7676 13.0044 51.4938 12.4693C51.22 11.9218 51.0831 11.2996 51.0831 10.6027V5.152C51.0831 4.82844 51.1889 4.56089 51.4005 4.34933C51.612 4.12533 51.8796 4.01333 52.2031 4.01333C52.5267 4.01333 52.7943 4.12533 53.0058 4.34933C53.2174 4.56089 53.3231 4.82844 53.3231 5.152V9.93067C53.3231 10.7396 53.4974 11.312 53.8458 11.648C54.2067 11.9716 54.7045 12.1333 55.3391 12.1333C55.7747 12.1333 56.1418 12.0524 56.4405 11.8907C56.7392 11.7164 56.9694 11.4676 57.1312 11.144C57.2929 10.808 57.3738 10.4036 57.3738 9.93067V5.152C57.3738 4.82844 57.4796 4.56089 57.6912 4.34933C57.9027 4.12533 58.1703 4.01333 58.4938 4.01333Z" fill="#2C46B1"/>
</svg>
